0   NAME 0 0
3   PUSHMT
4   SETD 0
6   PUSH -32768
8   PUSH 176
10   BR
11   NAME 1 0
14   PUSHMT
15   SETD 1
17   NAME 2 0
20   PUSHMT
21   SETD 2
23   PUSH -32768
25   PUSH 97
27   BR
28   NAME 3 0
31   PUSHMT
32   SETD 3
34   PUSH 59
36   PUSH 61
38   PUSH 120
40   PUSH 32
42   PUSH 58
44   PUSH 114
46   PUSH 101
48   PUSH 110
50   PUSH 110
52   PUSH 105
54   PUSH 9
56   PUSH 245
58   BR
59   NAME 0 0
62   LOAD
63   PRINTI
64   PUSH 77
66   PUSH 61
68   PUSH 121
70   PUSH 32
72   PUSH 3
74   PUSH 245
76   BR
77   NAME 2 0
80   LOAD
81   PRINTI
82   PUSH 10
84   PUSH 13
86   PRINTC
87   PRINTC
88   PUSHMT
89   NAME 3 0
92   SUB
93   POP
94   SETD 3
96   BR
97   NAME 2 0
100   PUSH 10
102   STORE
103   PUSH 148
105   PUSH 114
107   PUSH 101
109   PUSH 110
111   PUSH 110
113   PUSH 105
115   PUSH 32
117   PUSH 103
119   PUSH 110
121   PUSH 105
123   PUSH 108
125   PUSH 108
127   PUSH 97
129   PUSH 99
131   PUSH 32
133   PUSH 114
135   PUSH 101
137   PUSH 116
139   PUSH 117
141   PUSH 111
143   PUSH 19
145   PUSH 245
147   BR
148   PUSH 10
150   PUSH 13
152   PRINTC
153   PRINTC
154   PUSH 159
156   PUSH 28
158   BR
159   PUSHMT
160   NAME 2 0
163   SUB
164   POP
165   SETD 2
167   PUSHMT
168   NAME 1 0
171   SUB
172   POP
173   SETD 1
175   BR
176   NAME 0 0
179   PUSH 5
181   STORE
182   PUSH 225
184   PUSH 114
186   PUSH 101
188   PUSH 116
190   PUSH 117
192   PUSH 111
194   PUSH 32
196   PUSH 103
198   PUSH 110
200   PUSH 105
202   PUSH 108
204   PUSH 108
206   PUSH 97
208   PUSH 99
210   PUSH 32
212   PUSH 110
214   PUSH 105
216   PUSH 97
218   PUSH 109
220   PUSH 18
222   PUSH 245
224   BR
225   PUSH 10
227   PUSH 13
229   PRINTC
230   PRINTC
231   PUSH 236
233   PUSH 11
235   BR
236   PUSHMT
237   NAME 0 0
240   SUB
241   POP
242   SETD 0
244   HALT
245   FLIP
246   PRINTC
247   PUSH 1
249   SUB
250   PUSH 2
252   DUP
253   PUSH 0
255   EQ
256   PUSH 245
258   BF
259   PUSH 1
261   POP
262   BR
