0   NAME 0 0
3   PUSHMT
4   SETD 0
6   PUSH 59
8   BR
9   NAME 1 0
12   PUSHMT
13   SETD 1
15   PUSH 44
17   PUSH 33
19   PUSH 101
21   PUSH 118
23   PUSH 105
25   PUSH 108
27   PUSH 97
29   PUSH 32
31   PUSH 115
33   PUSH 39
35   PUSH 116
37   PUSH 105
39   PUSH 11
41   PUSH 73
43   BR
44   PUSH 10
46   PUSH 13
48   PRINTC
49   PRINTC
50   PUSHMT
51   NAME 1 0
54   SUB
55   POP
56   SETD 1
58   BR
59   PUSH 64
61   PUSH 9
63   BR
64   PUSHMT
65   NAME 0 0
68   SUB
69   POP
70   SETD 0
72   HALT
73   FLIP
74   PRINTC
75   PUSH 1
77   SUB
78   PUSH 2
80   DUP
81   PUSH 0
83   EQ
84   PUSH 73
86   BF
87   PUSH 1
89   POP
90   BR
