0   NAME 0 0
3   PUSHMT
4   SETD 0
6   PUSH 59
8   BR
9   NAME 1 0
12   PUSHMT
13   SETD 1
15   PUSH 44
17   PUSH 33
19   PUSH 101
21   PUSH 118
23   PUSH 105
25   PUSH 108
27   PUSH 97
29   PUSH 32
31   PUSH 115
33   PUSH 39
35   PUSH 116
37   PUSH 105
39   PUSH 11
41   PUSH 68
43   BR
44   PUSH 10
46   PUSH 13
48   PRINTC
49   PRINTC
50   PUSHMT
51   NAME 1 0
54   SUB
55   POP
56   SETD 1
58   BR
59   PUSHMT
60   NAME 0 0
63   SUB
64   POP
65   SETD 0
67   HALT
68   FLIP
69   PRINTC
70   PUSH 1
72   SUB
73   PUSH 2
75   DUP
76   PUSH 0
78   EQ
79   PUSH 68
81   BF
82   PUSH 1
84   POP
85   BR
